<?xml version="1.0" encoding="UTF-8"?>
<svg id="_レイヤー_2" data-name="レイヤー 2" xmlns="http://www.w3.org/2000/svg" viewBox="0 0 540.38 184.83">
  <defs>
    <style>
      .cls-1 {
        fill: #efdfd7;
      }

      .cls-1, .cls-2, .cls-3 {
        stroke-width: 0px;
      }

      .cls-4 {
        font-size: 57.68px;
      }

      .cls-4, .cls-5 {
        fill: #fff;
        font-family: HannariMincho-Regular-90ms-RKSJ-H, HannariMincho;
      }

      .cls-2 {
        fill: #429f90;
      }

      .cls-3 {
        fill: #73b6ac;
      }

      .cls-5 {
        font-size: 108.87px;
      }
    </style>
  </defs>
  <g id="_レイヤー_5" data-name="レイヤー 5">
    <g>
      <g>
        <path class="cls-2" d="m163.94,89.56c0,27.09,0,54.19.01,81.28,0,.51-.12.63-.63.63-54.23-.01-108.46-.01-162.7,0-.51,0-.63-.12-.63-.63C.01,116.6.01,62.37,0,8.14c0-.51.12-.63.63-.63,54.23.01,108.46.01,162.7,0,.51,0,.63.12.63.63-.01,27.14-.01,54.28-.01,81.42Z"/>
        <path class="cls-3" d="m78.68,100.7c-4.12,0-8.24.04-12.36,0-6.4-.08-12.09-2.15-16.97-6.33-5.65-4.83-8.74-11.01-9.27-18.38-.52-7.28,1.64-13.75,6.44-19.29,4.82-5.56,10.95-8.61,18.25-9.11,7.27-.49,13.76,1.64,19.29,6.46,5.16,4.5,8.12,10.19,8.97,16.98.13,1.06.18,2.13.18,3.2-.01,8.47,0,16.94,0,25.41q0,1.06-1.06,1.07c-4.49,0-8.97,0-13.46,0Z"/>
        <path class="cls-3" d="m93.3,109.43c0-2.59.01-5.19,0-7.78,0-.61.18-.85.82-.85,5.12.02,10.24-.11,15.36.06,4.78.16,8.62,2.36,11.48,6.18,2.26,3.02,3.23,6.46,2.95,10.2-.35,4.66-2.46,8.41-6.2,11.22-3.04,2.28-6.49,3.18-10.27,2.96-5.69-.32-11.21-4.45-13.16-9.83-.66-1.82-1-3.67-.98-5.61.02-2.18,0-4.37,0-6.55Z"/>
        <path class="cls-1" d="m107.98,120.77c-.77,0-1.55-.03-2.32,0-1.79.08-3.34-.93-3.4-3.11-.04-1.52,0-3.04-.01-4.56,0-.34.15-.4.45-.4,4.3,0,8.6,0,12.9,0,.26,0,.53-.01.52.36-.05,1.15.14,2.31-.11,3.46-.17.78-.65,1.22-1.43,1.29-.51.04-.8.21-.9.75-.29,1.55-1.79,2.18-2.96,2.19-.91,0-1.82,0-2.73,0Z"/>
        <path class="cls-1" d="m108.02,122.52c-1.88,0-3.75,0-5.63,0-.47,0-.7-.09-.7-.64,0-.57.27-.57.69-.57,3.75.01,7.5.01,11.25,0,.48,0,.76.06.74.66-.02.45-.17.56-.58.56-1.92,0-3.85,0-5.77,0h0Z"/>
        <path class="cls-1" d="m107.47,110.91c-.01.17-.05.34-.03.51.04.4.08.67-.51.69-.61.02-.67-.24-.63-.71.02-.29.04-.59,0-.88-.11-.71.26-.81.84-.75.25.02.35.04.32.32-.03.27,0,.55,0,.82,0,0,.02,0,.02,0Z"/>
        <path class="cls-1" d="m109.77,111.16c.04.58.07,1.03-.67.97-.39-.04-.51-.17-.49-.53.01-.2.02-.41,0-.61-.08-.56.25-.58.69-.61.56-.05.46.32.5.62,0,.08-.02.17-.02.16Z"/>
        <path class="cls-3" d="m108.01,113.8c1.32,0,2.64.02,3.95-.01.54-.01.7.18.68.7-.03,1.07.01,2.14,0,3.2-.01,1.18-.68,1.84-1.85,1.84-1.84,0-3.69-.06-5.52.02-1.13.05-1.83-.91-1.85-1.82-.02-1.14,0-2.27-.01-3.41,0-.43.18-.54.57-.53,1.34.01,2.68,0,4.02,0Z"/>
        <path class="cls-3" d="m113.81,115.2c0-.25.01-.5,0-.75-.03-.42.05-.67.58-.67.51,0,.61.24.6.66-.01.49,0,.99-.03,1.48-.02.36-.08.72-.57.75-.39.02-.61-.08-.57-.52.02-.32,0-.63,0-.95Z"/>
      </g>
      <g>
        <text class="cls-5" transform="translate(193.88 95.8)"><tspan x="0" y="0">HTML/CSS 中間課題</tspan></text>
      
      </g>
    </g>
  </g>
</svg>